<svg width="11" height="8" viewBox="0 0 11 8" fill="none" xmlns="http://www.w3.org/2000/svg">
<path d="M0.524954 1.1675C0.712317 0.981251 0.965768 0.876709 1.22995 0.876709C1.49414 0.876709 1.74759 0.981251 1.93495 1.1675L5.52495 4.7075L9.06495 1.1675C9.25232 0.981251 9.50577 0.876709 9.76995 0.876709C10.0341 0.876709 10.2876 0.981251 10.475 1.1675C10.5687 1.26046 10.6431 1.37107 10.6938 1.49292C10.7446 1.61478 10.7708 1.74549 10.7708 1.8775C10.7708 2.00951 10.7446 2.14022 10.6938 2.26208C10.6431 2.38394 10.5687 2.49454 10.475 2.5875L6.23495 6.8275C6.14199 6.92123 6.03139 6.99562 5.90953 7.04639C5.78767 7.09716 5.65697 7.1233 5.52495 7.1233C5.39294 7.1233 5.26224 7.09716 5.14038 7.04639C5.01852 6.99562 4.90792 6.92123 4.81495 6.8275L0.524954 2.5875C0.431226 2.49454 0.356832 2.38394 0.306063 2.26208C0.255294 2.14022 0.229155 2.00951 0.229155 1.8775C0.229155 1.74549 0.255294 1.61478 0.306063 1.49292C0.356832 1.37107 0.431226 1.26046 0.524954 1.1675Z" fill="#4F4B62"/>
</svg>
