<svg width="11" height="8" viewBox="0 0 11 8" fill="none" xmlns="http://www.w3.org/2000/svg">
<path d="M0.524954 6.8325C0.712317 7.01875 0.965768 7.12329 1.22995 7.12329C1.49414 7.12329 1.74759 7.01875 1.93495 6.8325L5.52495 3.2925L9.06495 6.8325C9.25232 7.01875 9.50577 7.12329 9.76995 7.12329C10.0341 7.12329 10.2876 7.01875 10.475 6.8325C10.5687 6.73954 10.6431 6.62893 10.6938 6.50708C10.7446 6.38522 10.7708 6.25451 10.7708 6.1225C10.7708 5.99049 10.7446 5.85978 10.6938 5.73792C10.6431 5.61606 10.5687 5.50546 10.475 5.4125L6.23495 1.1725C6.14199 1.07877 6.03139 1.00438 5.90953 0.953608C5.78767 0.902839 5.65697 0.8767 5.52495 0.8767C5.39294 0.8767 5.26224 0.902839 5.14038 0.953608C5.01852 1.00438 4.90792 1.07877 4.81495 1.1725L0.524954 5.4125C0.431226 5.50546 0.356832 5.61606 0.306063 5.73792C0.255294 5.85978 0.229155 5.99049 0.229155 6.1225C0.229155 6.25451 0.255294 6.38522 0.306063 6.50708C0.356832 6.62893 0.431226 6.73954 0.524954 6.8325Z" fill="#4F4B62"/>
</svg>
