<svg width="45" height="13" viewBox="0 0 45 13" fill="none" xmlns="http://www.w3.org/2000/svg">
<path d="M0.015625 12V0.625H3.51562C4.51562 0.625 5.40885 0.851562 6.19531 1.30469C6.98698 1.7526 7.60417 2.39323 8.04688 3.22656C8.48958 4.05469 8.71094 4.9974 8.71094 6.05469V6.57812C8.71094 7.63542 8.49219 8.57552 8.05469 9.39844C7.6224 10.2214 7.01042 10.8594 6.21875 11.3125C5.42708 11.7656 4.53385 11.9948 3.53906 12H0.015625ZM2.35938 2.52344V10.1172H3.49219C4.40885 10.1172 5.10938 9.81771 5.59375 9.21875C6.07812 8.61979 6.32552 7.76302 6.33594 6.64844V6.04688C6.33594 4.89062 6.09635 4.01562 5.61719 3.42188C5.13802 2.82292 4.4375 2.52344 3.51562 2.52344H2.35938ZM13.4844 0.625L16.4062 8.875L19.3125 0.625H22.3906V12H20.0391V8.89062L20.2734 3.52344L17.2031 12H15.5938L12.5312 3.53125L12.7656 8.89062V12H10.4219V0.625H13.4844ZM33.3672 8.21094C33.2786 9.4349 32.8255 10.3984 32.0078 11.1016C31.1953 11.8047 30.1224 12.1562 28.7891 12.1562C27.3307 12.1562 26.1823 11.6667 25.3438 10.6875C24.5104 9.70312 24.0938 8.35417 24.0938 6.64062V5.94531C24.0938 4.85156 24.2865 3.88802 24.6719 3.05469C25.0573 2.22135 25.6068 1.58333 26.3203 1.14062C27.0391 0.692708 27.8724 0.46875 28.8203 0.46875C30.1328 0.46875 31.1901 0.820312 31.9922 1.52344C32.7943 2.22656 33.2578 3.21354 33.3828 4.48438H31.0391C30.9818 3.75 30.776 3.21875 30.4219 2.89062C30.0729 2.55729 29.5391 2.39062 28.8203 2.39062C28.0391 2.39062 27.4531 2.67188 27.0625 3.23438C26.6771 3.79167 26.4792 4.65885 26.4688 5.83594V6.69531C26.4688 7.92448 26.6536 8.82292 27.0234 9.39062C27.3984 9.95833 27.987 10.2422 28.7891 10.2422C29.513 10.2422 30.0521 10.0781 30.4062 9.75C30.7656 9.41667 30.9714 8.90365 31.0234 8.21094H33.3672ZM41.3281 9.65625H37.2188L36.4375 12H33.9453L38.1797 0.625H40.3516L44.6094 12H42.1172L41.3281 9.65625ZM37.8516 7.75781H40.6953L39.2656 3.5L37.8516 7.75781Z" fill="#7E8183"/>
</svg>
