<svg aria-hidden="true" style="position: absolute; width: 0; height: 0; overflow: hidden;" version="1.1" xmlns="http://www.w3.org/2000/svg" xmlns:xlink="http://www.w3.org/1999/xlink">
<defs>
<symbol id="icon-arrow" viewBox="0 0 44 32">
<path fill="#4f4b62" style="fill: var(--color1, #4f4b62)" d="M2.1 27.33c0.749 0.745 1.763 1.163 2.82 1.163s2.071-0.418 2.82-1.163l14.36-14.16 14.16 14.16c0.749 0.745 1.763 1.163 2.82 1.163s2.071-0.418 2.82-1.163c0.375-0.372 0.672-0.814 0.875-1.302s0.308-1.010 0.308-1.538-0.105-1.051-0.308-1.538c-0.203-0.487-0.5-0.93-0.875-1.302l-16.96-16.96c-0.372-0.375-0.814-0.672-1.302-0.876s-1.010-0.308-1.538-0.308c-0.528 0-1.051 0.105-1.538 0.308s-0.93 0.501-1.302 0.876l-17.16 16.96c-0.375 0.372-0.672 0.814-0.876 1.302s-0.308 1.010-0.308 1.538c0 0.528 0.105 1.051 0.308 1.538s0.501 0.93 0.876 1.302z"></path>
</symbol>
<symbol id="icon-arrowUp" viewBox="0 0 44 32">
<path fill="#4f4b62" style="fill: var(--color1, #4f4b62)" d="M2.1 4.67c0.749-0.745 1.763-1.163 2.82-1.163s2.071 0.418 2.82 1.163l14.36 14.16 14.16-14.16c0.749-0.745 1.763-1.163 2.82-1.163s2.071 0.418 2.82 1.163c0.375 0.372 0.672 0.814 0.875 1.302s0.308 1.010 0.308 1.538-0.105 1.051-0.308 1.538c-0.203 0.487-0.5 0.93-0.875 1.302l-16.96 16.96c-0.372 0.375-0.814 0.672-1.302 0.876s-1.010 0.308-1.538 0.308c-0.528 0-1.051-0.105-1.538-0.308s-0.93-0.501-1.302-0.876l-17.16-16.96c-0.375-0.372-0.672-0.814-0.876-1.302s-0.308-1.010-0.308-1.538c0-0.528 0.105-1.051 0.308-1.538s0.501-0.93 0.876-1.302z"></path>
</symbol>
<symbol id="icon-burger" viewBox="0 0 32 32">
<path fill="#63718e" style="fill: var(--color2, #63718e)" d="M4 12.444h24c0.354 0 0.693-0.14 0.943-0.39s0.39-0.589 0.39-0.943c0-0.354-0.14-0.693-0.39-0.943s-0.589-0.39-0.943-0.39h-24c-0.354 0-0.693 0.14-0.943 0.39s-0.391 0.589-0.391 0.943c0 0.354 0.14 0.693 0.391 0.943s0.589 0.39 0.943 0.39zM28 20.444h-24c-0.354 0-0.693 0.14-0.943 0.39s-0.391 0.589-0.391 0.943c0 0.354 0.14 0.693 0.391 0.943s0.589 0.39 0.943 0.39h24c0.354 0 0.693-0.14 0.943-0.39s0.39-0.589 0.39-0.943c0-0.354-0.14-0.693-0.39-0.943s-0.589-0.39-0.943-0.39zM28 15.111h-24c-0.354 0-0.693 0.14-0.943 0.39s-0.391 0.589-0.391 0.943c0 0.354 0.14 0.693 0.391 0.943s0.589 0.39 0.943 0.39h24c0.354 0 0.693-0.14 0.943-0.39s0.39-0.589 0.39-0.943c0-0.354-0.14-0.693-0.39-0.943s-0.589-0.39-0.943-0.39z"></path>
</symbol>
<symbol id="icon-cardIcon" viewBox="0 0 32 32">
<path fill="#c774ee" style="fill: var(--color3, #c774ee)" d="M32 4.186c0-2.312-1.874-4.186-4.186-4.186h-23.627c-2.312 0-4.186 1.874-4.186 4.186v23.627c0 2.312 1.874 4.187 4.186 4.187h23.627c2.312 0 4.187-1.874 4.187-4.186v-23.627zM7.183 26.13c-0.693 0.186-1.328-0.449-1.142-1.142l1.15-4.286 4.277 4.277-4.285 1.15zM25.656 10.545l-12.66 12.66-4.258-4.258 12.66-12.66c0.601-0.6 1.574-0.6 2.174 0l2.084 2.084c0.6 0.6 0.6 1.573 0 2.174z"></path>
</symbol>
<symbol id="icon-cross" viewBox="0 0 33 32">
<path stroke-linejoin="miter" stroke-linecap="butt" stroke-miterlimit="4" stroke-width="0.9697" d="M32.343 0.343l-31.030 31.030"></path>
<path stroke-linejoin="miter" stroke-linecap="butt" stroke-miterlimit="4" stroke-width="0.9697" d="M31.657 31.373l-31.030-31.030"></path>
</symbol>
<symbol id="icon-DMCA" viewBox="0 0 111 32">
<path fill="#7e8183" style="fill: var(--color4, #7e8183)" d="M0.038 29.538v-28h8.615c2.462 0 4.66 0.558 6.596 1.673 1.949 1.103 3.468 2.679 4.558 4.731 1.090 2.038 1.635 4.359 1.635 6.962v1.288c0 2.603-0.538 4.917-1.615 6.942-1.064 2.026-2.57 3.596-4.519 4.712s-4.147 1.68-6.596 1.692h-8.673zM5.808 6.212v18.692h2.788c2.256 0 3.981-0.737 5.173-2.212s1.801-3.583 1.827-6.327v-1.481c0-2.846-0.59-5-1.769-6.462-1.18-1.474-2.904-2.212-5.173-2.212h-2.846zM33.192 1.538l7.192 20.308 7.154-20.308h7.577v28h-5.788v-7.654l0.577-13.212-7.558 20.865h-3.961l-7.539-20.846 0.577 13.192v7.654h-5.769v-28h7.538zM82.135 20.212c-0.218 3.013-1.333 5.385-3.346 7.115-2 1.731-4.641 2.596-7.923 2.596-3.59 0-6.417-1.205-8.481-3.615-2.051-2.423-3.077-5.744-3.077-9.962v-1.712c0-2.692 0.474-5.064 1.423-7.115s2.301-3.622 4.058-4.712c1.769-1.103 3.821-1.654 6.154-1.654 3.231 0 5.833 0.865 7.808 2.596s3.115 4.16 3.423 7.288h-5.769c-0.141-1.808-0.648-3.115-1.519-3.923-0.859-0.821-2.173-1.231-3.942-1.231-1.923 0-3.365 0.692-4.327 2.077-0.949 1.372-1.436 3.506-1.461 6.404v2.115c0 3.026 0.455 5.237 1.365 6.635 0.923 1.397 2.372 2.096 4.346 2.096 1.782 0 3.109-0.404 3.981-1.212 0.885-0.82 1.391-2.083 1.519-3.788h5.769zM101.731 23.769h-10.115l-1.923 5.769h-6.135l10.423-28h5.346l10.481 28h-6.135l-1.942-5.769zM93.173 19.096h7l-3.519-10.481-3.481 10.481z"></path>
</symbol>
<symbol id="icon-protected" viewBox="0 0 153 32">
<path fill="#7e8183" style="fill: var(--color4, #7e8183)" d="M1.684 0c-0.93 0-1.684 0.754-1.684 1.684v26.947c0 0.93 0.754 1.684 1.684 1.684h149.895c0.93 0 1.684-0.754 1.684-1.684v-26.947c0-0.93-0.754-1.684-1.684-1.684h-149.895zM52.737 21.079c-0.667 1.421-1.623 2.518-2.868 3.29-1.237 0.772-2.658 1.158-4.263 1.158-1.588 0-3.004-0.381-4.25-1.145s-2.211-1.851-2.895-3.263c-0.684-1.421-1.031-3.053-1.039-4.895v-0.947c0-1.886 0.338-3.544 1.013-4.974 0.684-1.439 1.645-2.539 2.882-3.303 1.246-0.772 2.667-1.158 4.263-1.158s3.013 0.386 4.25 1.158c1.246 0.763 2.206 1.864 2.882 3.303 0.684 1.43 1.026 3.083 1.026 4.961v0.855c0 1.886-0.333 3.54-1 4.96zM48.658 10.671c-0.719-1.044-1.746-1.566-3.079-1.566-1.325 0-2.346 0.518-3.066 1.553-0.719 1.026-1.083 2.535-1.092 4.526v0.934c0 1.956 0.36 3.474 1.079 4.553s1.754 1.619 3.105 1.619c1.325 0 2.342-0.518 3.053-1.553 0.711-1.044 1.070-2.561 1.079-4.553v-0.934c0-2.009-0.36-3.535-1.079-4.579zM7.342 18.513v6.75h-3.947v-19.158h7.474c1.439 0 2.702 0.263 3.789 0.789 1.097 0.526 1.939 1.276 2.526 2.25 0.588 0.965 0.882 2.066 0.882 3.303 0 1.877-0.645 3.36-1.934 4.447-1.281 1.079-3.057 1.619-5.329 1.619h-3.46zM7.342 15.316v-6.013h3.618c0.974 0.018 1.737 0.316 2.289 0.895s0.829 1.338 0.829 2.276c0 0.912-0.276 1.614-0.829 2.105-0.544 0.491-1.338 0.737-2.382 0.737h-3.526zM27.882 18.25h-3.145v7.013h-3.947v-19.158h7.118c2.263 0 4.009 0.504 5.237 1.513s1.842 2.434 1.842 4.276c0 1.307-0.285 2.399-0.855 3.276-0.561 0.868-1.417 1.561-2.566 2.079l4.145 7.829v0.184h-4.237l-3.592-7.013zM24.737 15.053v-5.75h3.171c1.061 0 1.847 0.259 2.355 0.776 0.517 0.518 0.776 1.228 0.776 2.132 0 0.886-0.272 1.583-0.816 2.092-0.544 0.5-1.311 0.75-2.303 0.75h-3.184zM69.895 9.303h-5.868v15.961h-3.947v-15.961h-5.789v-3.197h15.605v3.197zM76.105 16.96v5.132h8.895v3.171h-12.842v-19.158h12.816v3.197h-8.868v4.566h7.579v3.092h-7.579zM102.355 18.882c-0.149 2.061-0.912 3.684-2.289 4.869-1.368 1.184-3.176 1.776-5.421 1.776-2.456 0-4.39-0.824-5.803-2.474-1.403-1.658-2.105-3.93-2.105-6.816v-1.171c0-1.842 0.325-3.465 0.974-4.868s1.575-2.478 2.776-3.224c1.21-0.754 2.614-1.132 4.211-1.132 2.211 0 3.991 0.592 5.342 1.776s2.132 2.846 2.342 4.987h-3.947c-0.097-1.237-0.443-2.132-1.040-2.684-0.588-0.561-1.487-0.842-2.697-0.842-1.316 0-2.303 0.474-2.96 1.421-0.649 0.939-0.983 2.399-1 4.382v1.447c0 2.070 0.311 3.583 0.934 4.539 0.632 0.956 1.623 1.434 2.974 1.434 1.219 0 2.127-0.276 2.724-0.829 0.605-0.561 0.952-1.426 1.040-2.592h3.947zM113.105 9.303v15.961h-3.947v-15.961h-5.789v-3.197h15.605v3.197h-5.868zM132.763 16.96h-7.579v5.132h8.895v3.171h-12.842v-19.158h12.816v3.197h-8.869v4.566h7.579v3.092zM136.395 6.105h5.895c1.684 0 3.189 0.382 4.513 1.145 1.333 0.754 2.373 1.833 3.118 3.237 0.746 1.395 1.118 2.982 1.118 4.763v0.882c0 1.781-0.369 3.364-1.105 4.75-0.728 1.386-1.759 2.461-3.092 3.224s-2.838 1.149-4.513 1.158h-5.934v-19.158zM140.342 22.092v-12.79h1.947c1.553 0 2.732 0.504 3.539 1.513 0.807 1 1.211 2.474 1.211 4.421v1.013c-0.018 1.877-0.434 3.32-1.25 4.329s-1.996 1.513-3.54 1.513h-1.908z"></path>
</symbol>
<symbol id="icon-logo" viewBox="0 0 83 32">
<path fill="#423d59" style="fill: var(--color5, #423d59)" d="M0 24.889v-13.857h2.959v1.128c0.4-0.407 0.866-0.727 1.398-0.961 0.539-0.234 1.113-0.351 1.722-0.351 0.812 0 1.573 0.197 2.283 0.592 0.717 0.388 1.294 0.958 1.731 1.71 0.444 0.752 0.666 1.667 0.666 2.746 0 1.128-0.216 2.077-0.647 2.847-0.431 0.764-1.002 1.343-1.712 1.738s-1.484 0.592-2.321 0.592c-0.609 0-1.183-0.123-1.722-0.37-0.533-0.247-0.999-0.582-1.398-1.008v5.195h-2.959zM2.959 16.319c0 0.456 0.114 0.857 0.342 1.202 0.228 0.339 0.52 0.601 0.875 0.786 0.362 0.185 0.742 0.277 1.142 0.277 0.647 0 1.208-0.216 1.684-0.647 0.482-0.438 0.723-1.119 0.723-2.043s-0.238-1.596-0.714-2.015c-0.476-0.425-1.040-0.638-1.693-0.638-0.393 0-0.771 0.092-1.132 0.277-0.361 0.179-0.656 0.434-0.885 0.767s-0.342 0.73-0.342 1.193v0.841z"></path>
<path fill="#423d59" style="fill: var(--color5, #423d59)" d="M12.598 20.849v-9.818h2.959v1.331c0.292-0.462 0.679-0.829 1.161-1.1 0.488-0.277 1.072-0.416 1.75-0.416 0.406 0 0.723 0.031 0.951 0.092 0.235 0.055 0.381 0.099 0.438 0.129l-0.485 2.57c-0.057-0.031-0.184-0.080-0.381-0.148s-0.45-0.102-0.761-0.102c-0.679 0-1.215 0.142-1.608 0.425-0.387 0.284-0.663 0.644-0.828 1.082-0.159 0.431-0.238 0.872-0.238 1.322v4.631h-2.959z"></path>
<path fill="#423d59" style="fill: var(--color5, #423d59)" d="M26.224 21.062c-1.091 0-2.052-0.219-2.883-0.656s-1.481-1.038-1.95-1.803c-0.463-0.77-0.694-1.658-0.694-2.662 0-0.998 0.231-1.88 0.694-2.644 0.469-0.77 1.119-1.368 1.95-1.793 0.831-0.431 1.792-0.647 2.883-0.647s2.052 0.216 2.883 0.647c0.831 0.425 1.478 1.023 1.941 1.793 0.469 0.764 0.704 1.646 0.704 2.644 0 1.005-0.235 1.892-0.704 2.662-0.463 0.764-1.11 1.365-1.941 1.803s-1.792 0.656-2.883 0.656zM26.224 18.788c0.767 0 1.383-0.259 1.846-0.777s0.694-1.208 0.694-2.071-0.231-1.547-0.694-2.052c-0.463-0.505-1.078-0.758-1.846-0.758s-1.383 0.253-1.846 0.758c-0.463 0.505-0.694 1.189-0.694 2.052s0.231 1.553 0.694 2.071c0.463 0.518 1.078 0.777 1.846 0.777z"></path>
<path fill="#423d59" style="fill: var(--color5, #423d59)" d="M37.818 21.071c-0.844 0-1.62-0.194-2.331-0.582-0.71-0.394-1.281-0.977-1.712-1.747s-0.647-1.719-0.647-2.847c0-1.079 0.219-1.994 0.656-2.746 0.444-0.752 1.021-1.322 1.731-1.71 0.717-0.394 1.484-0.592 2.302-0.592 0.603 0 1.17 0.117 1.703 0.351 0.539 0.228 1.008 0.548 1.408 0.961v-5.759h2.959v14.449h-2.959v-1.146c-0.393 0.419-0.859 0.752-1.398 0.998-0.533 0.247-1.103 0.37-1.712 0.37zM38.569 18.584c0.406 0 0.786-0.092 1.142-0.277 0.362-0.191 0.653-0.459 0.875-0.804 0.228-0.345 0.342-0.752 0.342-1.22v-0.804c0-0.462-0.114-0.86-0.342-1.193s-0.523-0.589-0.885-0.767c-0.361-0.185-0.739-0.277-1.132-0.277-0.647 0-1.211 0.213-1.693 0.638-0.476 0.419-0.714 1.091-0.714 2.015s0.238 1.605 0.714 2.043c0.482 0.431 1.046 0.647 1.693 0.647z"></path>
<path fill="#423d59" style="fill: var(--color5, #423d59)" d="M49.722 21.034c-0.717 0-1.307-0.111-1.769-0.333-0.463-0.228-0.828-0.533-1.094-0.915s-0.453-0.807-0.561-1.276c-0.108-0.468-0.162-0.943-0.162-1.424v-6.055h2.949v5.297c0 0.413 0.048 0.792 0.143 1.137s0.27 0.622 0.523 0.832c0.254 0.21 0.622 0.314 1.104 0.314 0.457 0 0.847-0.129 1.17-0.388 0.33-0.259 0.58-0.585 0.752-0.98 0.171-0.401 0.257-0.814 0.257-1.239v-4.973h2.949v9.818h-2.949v-1.424c-0.355 0.493-0.815 0.884-1.379 1.174-0.558 0.29-1.202 0.434-1.931 0.434z"></path>
<path fill="#423d59" style="fill: var(--color5, #423d59)" d="M63.284 21.071c-1.11 0-2.083-0.216-2.921-0.647-0.831-0.438-1.478-1.042-1.941-1.812-0.463-0.777-0.694-1.676-0.694-2.699s0.231-1.914 0.694-2.672c0.463-0.758 1.11-1.347 1.941-1.766 0.837-0.419 1.811-0.629 2.921-0.629 0.831 0 1.563 0.12 2.198 0.361 0.641 0.234 1.177 0.545 1.608 0.934 0.438 0.382 0.767 0.807 0.989 1.276 0.222 0.462 0.333 0.921 0.333 1.377v0.074h-2.921c0-0.049-0.010-0.12-0.028-0.213-0.076-0.388-0.292-0.736-0.647-1.045-0.349-0.308-0.866-0.462-1.551-0.462-0.729 0-1.338 0.237-1.827 0.712-0.482 0.468-0.723 1.152-0.723 2.052 0 0.887 0.241 1.587 0.723 2.099 0.488 0.505 1.097 0.758 1.827 0.758 0.748 0 1.294-0.163 1.636-0.49 0.342-0.333 0.539-0.73 0.59-1.193h2.921c0 0.462-0.111 0.927-0.333 1.396-0.216 0.468-0.539 0.897-0.97 1.285s-0.967 0.703-1.608 0.943c-0.634 0.24-1.373 0.361-2.217 0.361z"></path>
<path fill="#423d59" style="fill: var(--color5, #423d59)" d="M75.126 21.052c-0.387 0-0.787-0.034-1.198-0.102-0.406-0.062-0.784-0.188-1.132-0.379-0.349-0.197-0.634-0.484-0.856-0.86-0.216-0.376-0.324-0.872-0.324-1.488v-4.973h-2.331v-2.219h0.656c0.514 0 0.888-0.034 1.123-0.102 0.241-0.068 0.393-0.24 0.457-0.518 0.063-0.284 0.095-0.743 0.095-1.377v-1.239h2.958v3.236h2.94v2.219h-2.94v4.16c0 0.425 0.051 0.77 0.152 1.035 0.108 0.265 0.371 0.398 0.79 0.398 0.209 0 0.406-0.018 0.59-0.055 0.191-0.037 0.333-0.074 0.428-0.111v2.154c-0.133 0.055-0.32 0.105-0.561 0.148-0.241 0.049-0.523 0.074-0.847 0.074z"></path>
<path fill="#423d59" style="fill: var(--color5, #423d59)" d="M80.929 21.126c-0.437 0-0.809-0.148-1.113-0.444s-0.457-0.656-0.457-1.082c0-0.419 0.152-0.777 0.457-1.072s0.676-0.444 1.113-0.444c0.431 0 0.799 0.148 1.104 0.444s0.457 0.653 0.457 1.072c0 0.425-0.152 0.786-0.457 1.082s-0.673 0.444-1.104 0.444z"></path>
<path fill="#c774ee" style="fill: var(--color3, #c774ee)" d="M32 16c0 2.946-2.547 5.333-5.689 5.333s-5.689-2.388-5.689-5.333c0-2.946 2.547-5.333 5.689-5.333s5.689 2.388 5.689 5.333z"></path>
</symbol>
<symbol id="icon-logosFacebook" viewBox="0 0 32 32">
<path fill="#000" style="fill: var(--color6, #000)" d="M5.333 0h21.333c2.946 0 5.333 2.388 5.333 5.333v21.333c0 2.946-2.388 5.333-5.333 5.333h-21.333c-2.946 0-5.333-2.388-5.333-5.333v-21.333c0-2.946 2.388-5.333 5.333-5.333z"></path>
<path fill="#fff" style="fill: var(--color7, #fff)" d="M14.186 31.733h4.297v-10.707h3.593l0.543-4.165h-4.136v-2.669c0-1.203 0.337-2.024 2.068-2.024h2.215v-3.74c-0.381-0.044-1.687-0.161-3.212-0.161-3.197 0-5.368 1.951-5.368 5.515v3.080h-3.608v4.165h3.608v10.707z"></path>
</symbol>
<symbol id="icon-logosInstagram" viewBox="0 0 32 32">
<path fill="#000" style="fill: var(--color6, #000)" d="M5.333 0h21.333c2.946 0 5.333 2.388 5.333 5.333v21.333c0 2.946-2.388 5.333-5.333 5.333h-21.333c-2.946 0-5.333-2.388-5.333-5.333v-21.333c0-2.946 2.388-5.333 5.333-5.333z"></path>
<path fill="#fff" style="fill: var(--color7, #fff)" d="M16 5.798c3.323 0 3.716 0.013 5.029 0.072 1.213 0.055 1.872 0.258 2.311 0.429 0.581 0.226 0.995 0.495 1.431 0.931s0.705 0.85 0.931 1.431c0.17 0.439 0.373 1.098 0.429 2.311 0.060 1.312 0.072 1.706 0.072 5.029s-0.013 3.716-0.072 5.029c-0.055 1.213-0.258 1.872-0.429 2.311-0.226 0.581-0.495 0.995-0.931 1.431s-0.85 0.705-1.431 0.931c-0.439 0.17-1.098 0.373-2.311 0.429-1.312 0.060-1.706 0.073-5.029 0.073s-3.717-0.013-5.029-0.073c-1.213-0.055-1.872-0.258-2.311-0.429-0.581-0.226-0.995-0.495-1.431-0.931s-0.705-0.85-0.931-1.431c-0.17-0.439-0.373-1.097-0.429-2.311-0.060-1.312-0.073-1.706-0.073-5.029s0.013-3.716 0.073-5.029c0.055-1.213 0.258-1.872 0.429-2.311 0.226-0.581 0.495-0.995 0.931-1.431s0.85-0.705 1.431-0.931c0.438-0.17 1.097-0.373 2.311-0.429 1.312-0.060 1.706-0.072 5.029-0.072zM16 3.556c-3.38 0-3.804 0.014-5.131 0.075-1.325 0.060-2.229 0.271-3.021 0.578-0.818 0.318-1.512 0.744-2.204 1.435s-1.117 1.386-1.435 2.204c-0.308 0.792-0.518 1.696-0.578 3.021-0.061 1.327-0.075 1.751-0.075 5.131s0.014 3.804 0.075 5.131c0.060 1.325 0.271 2.229 0.578 3.021 0.318 0.818 0.743 1.512 1.435 2.204s1.386 1.117 2.204 1.435c0.792 0.308 1.696 0.518 3.021 0.578 1.327 0.061 1.751 0.075 5.131 0.075s3.804-0.014 5.131-0.075c1.325-0.061 2.229-0.271 3.021-0.578 0.819-0.318 1.512-0.743 2.204-1.435s1.117-1.386 1.435-2.204c0.308-0.792 0.518-1.696 0.578-3.021 0.061-1.327 0.075-1.751 0.075-5.131s-0.014-3.804-0.075-5.131c-0.061-1.325-0.271-2.229-0.578-3.021-0.318-0.818-0.744-1.512-1.435-2.204s-1.386-1.117-2.204-1.435c-0.792-0.308-1.696-0.518-3.021-0.578-1.327-0.061-1.751-0.075-5.131-0.075zM16 9.61c-3.529 0-6.39 2.861-6.39 6.39s2.861 6.39 6.39 6.39c3.529 0 6.39-2.861 6.39-6.39s-2.861-6.39-6.39-6.39zM16 20.148c-2.291 0-4.148-1.857-4.148-4.148s1.857-4.148 4.148-4.148c2.291 0 4.148 1.857 4.148 4.148s-1.857 4.148-4.148 4.148zM24.136 9.357c0 0.825-0.669 1.493-1.493 1.493s-1.493-0.668-1.493-1.493c0-0.825 0.669-1.493 1.493-1.493s1.493 0.669 1.493 1.493z"></path>
</symbol>
<symbol id="icon-logosPinterest" viewBox="0 0 32 32">
<path fill="#fff" style="fill: var(--color7, #fff)" d="M5.333 0h21.333c2.946 0 5.333 2.388 5.333 5.333v21.333c0 2.946-2.388 5.333-5.333 5.333h-21.333c-2.946 0-5.333-2.388-5.333-5.333v-21.333c0-2.946 2.388-5.333 5.333-5.333z"></path>
<path fill="#000" style="fill: var(--color6, #000)" d="M4.444 16.445c0 4.914 2.955 9.135 7.183 10.991-0.034-0.838-0.006-1.844 0.209-2.756 0.231-0.974 1.544-6.539 1.544-6.539s-0.383-0.766-0.383-1.899c0-1.778 1.031-3.107 2.314-3.107 1.092 0 1.619 0.82 1.619 1.802 0 1.097-0.7 2.739-1.060 4.259-0.301 1.273 0.638 2.311 1.894 2.311 2.274 0 3.805-2.92 3.805-6.38 0-2.63-1.771-4.599-4.993-4.599-3.64 0-5.908 2.715-5.908 5.747 0 1.045 0.308 1.783 0.791 2.354 0.222 0.262 0.253 0.368 0.173 0.669-0.058 0.221-0.19 0.752-0.245 0.963-0.080 0.304-0.326 0.413-0.601 0.3-1.677-0.685-2.457-2.521-2.457-4.585 0-3.409 2.875-7.496 8.576-7.496 4.582 0 7.597 3.315 7.597 6.874 0 4.707-2.617 8.224-6.475 8.224-1.295 0-2.514-0.7-2.932-1.496 0 0-0.697 2.765-0.844 3.299-0.255 0.925-0.752 1.85-1.208 2.571 1.104 0.326 2.25 0.492 3.401 0.492 6.627 0 12-5.373 12-12s-5.373-12-12-12c-6.627 0-12 5.373-12 12z"></path>
</symbol>
<symbol id="icon-logosYoutube" viewBox="0 0 32 32">
<path fill="#fff" style="fill: var(--color7, #fff)" d="M5.333 0h21.333c2.946 0 5.333 2.388 5.333 5.333v21.333c0 2.946-2.388 5.333-5.333 5.333h-21.333c-2.946 0-5.333-2.388-5.333-5.333v-21.333c0-2.946 2.388-5.333 5.333-5.333z"></path>
<path fill="#fff" style="fill: var(--color7, #fff)" d="M13.433 12.721l6.728 3.536-6.728 3.565v-7.101z"></path>
<path fill="#3a3a3a" style="fill: var(--color8, #3a3a3a)" opacity="0.12" d="M13.433 19.822l5.901-4 0.826 0.435-6.728 3.565z"></path>
<path fill="#000" style="fill: var(--color6, #000)" d="M28.182 21.057c0 0-0.243 1.738-0.991 2.509-0.943 1.007-2.002 1.007-2.498 1.067-3.469 0.257-8.688 0.257-8.688 0.257h-0.010c0 0-5.219 0-8.708-0.257-0.486-0.059-1.545-0.059-2.498-1.067-0.739-0.77-0.982-2.509-0.982-2.509s-0.253-2.054-0.253-4.099v-1.916c0-2.044 0.253-4.089 0.253-4.089s0.243-1.738 0.991-2.509c0.943-1.007 2.187-0.978 2.741-1.077 1.992-0.198 8.455-0.257 8.455-0.257s5.229 0.010 8.708 0.267c0.486 0.059 1.545 0.059 2.498 1.067 0.748 0.77 0.991 2.509 0.991 2.509s0.253 2.044 0.253 4.089v1.916c-0.010 2.044-0.262 4.099-0.262 4.099zM13.43 12.721v7.101l6.725-3.565-6.725-3.536z"></path>
</symbol>
<symbol id="icon-mastercard" viewBox="0 0 48 32">
<path fill="#7e8183" style="fill: var(--color4, #7e8183)" d="M23.313 4.438c-1.778-1.181-3.729-1.771-5.854-1.771-1.43 0-2.802 0.281-4.114 0.844s-2.441 1.316-3.385 2.26-1.698 2.069-2.26 3.375c-0.563 1.306-0.844 2.674-0.844 4.104 0 1.444 0.281 2.819 0.844 4.125s1.316 2.431 2.26 3.375c0.944 0.944 2.069 1.698 3.375 2.26s2.681 0.844 4.125 0.844c2.125 0 4.076-0.59 5.854-1.771-1.819-1.486-3.056-3.33-3.708-5.531s-0.649-4.399 0.010-6.594 1.892-4.035 3.698-5.521zM24 4.938c-1.75 1.375-2.944 3.108-3.583 5.198s-0.642 4.177-0.011 6.26c0.632 2.083 1.83 3.813 3.594 5.188 1.764-1.375 2.962-3.104 3.594-5.188s0.628-4.17-0.011-6.26c-0.639-2.090-1.833-3.823-3.583-5.198zM24.688 4.438c1.806 1.486 3.038 3.33 3.698 5.531s0.663 4.403 0.010 6.604c-0.653 2.201-1.889 4.038-3.708 5.51 1.778 1.181 3.729 1.771 5.854 1.771 1.444 0 2.819-0.281 4.125-0.844s2.431-1.316 3.375-2.26c0.944-0.944 1.698-2.069 2.26-3.375s0.844-2.681 0.844-4.125c0-1.431-0.281-2.799-0.844-4.104s-1.316-2.431-2.26-3.375c-0.944-0.944-2.073-1.698-3.386-2.26s-2.684-0.844-4.114-0.844c-2.125 0-4.076 0.59-5.854 1.771zM40.125 19.479h0.146v-0.063h-0.354v0.063h0.146v0.354h0.063v-0.354zM40.729 19.833h0.083v-0.417h-0.104l-0.125 0.271-0.125-0.271h-0.104v0.417h0.063v-0.313l0.125 0.271h0.083l0.104-0.271v0.313zM40.563 29v0.042h-0.104v-0.063h0.104v0.021zM40.563 29.188h0.063l-0.083-0.104h0.042l0.021-0.021c0.014-0.014 0.021-0.035 0.021-0.063s-0.007-0.049-0.021-0.063l-0.021-0.021h-0.188v0.271h0.063v-0.104h0.021l0.083 0.104zM14.271 27.771c0-0.264 0.076-0.479 0.229-0.646s0.361-0.25 0.625-0.25c0.25 0 0.451 0.087 0.604 0.26s0.229 0.385 0.229 0.635c0 0.264-0.076 0.479-0.229 0.646s-0.354 0.25-0.604 0.25c-0.264 0-0.472-0.083-0.625-0.25s-0.229-0.382-0.229-0.646zM24.125 26.854c0.417 0 0.66 0.222 0.729 0.667h-1.458c0.070-0.444 0.313-0.667 0.729-0.667zM31.542 27.771c0-0.264 0.076-0.479 0.229-0.646s0.354-0.25 0.604-0.25 0.455 0.087 0.615 0.26c0.16 0.174 0.24 0.385 0.24 0.635 0 0.264-0.076 0.479-0.229 0.646s-0.361 0.25-0.625 0.25c-0.25 0-0.451-0.083-0.604-0.25s-0.229-0.382-0.229-0.646zM37.208 27.771c0-0.25 0.080-0.462 0.24-0.635s0.365-0.26 0.615-0.26c0.25 0 0.455 0.087 0.615 0.26s0.24 0.385 0.24 0.635c0 0.264-0.080 0.479-0.24 0.646s-0.365 0.25-0.615 0.25-0.455-0.087-0.615-0.261c-0.16-0.174-0.24-0.385-0.24-0.635zM40.5 29.271c-0.028 0-0.056-0.007-0.083-0.021-0.014 0-0.035-0.014-0.063-0.042s-0.042-0.049-0.042-0.063c-0.014-0.028-0.021-0.055-0.021-0.083 0-0.042 0.007-0.069 0.021-0.083 0-0.028 0.014-0.056 0.042-0.083l0.021-0.021c0.028 0 0.042-0.007 0.042-0.021 0.028-0.014 0.056-0.021 0.083-0.021 0.042 0 0.069 0.007 0.083 0.021l0.083 0.042 0.042 0.083v0.021c0.014 0.028 0.021 0.049 0.021 0.063l-0.021 0.021v0.063l-0.021 0.021-0.021 0.042c-0.028 0.028-0.056 0.042-0.083 0.042-0.014 0.014-0.042 0.021-0.083 0.021zM12.479 29.188h0.625v-1.771c0-0.333-0.101-0.601-0.302-0.802s-0.476-0.309-0.823-0.323c-0.444 0-0.771 0.167-0.979 0.5-0.194-0.333-0.507-0.5-0.938-0.5-0.333 0-0.604 0.139-0.813 0.417v-0.333h-0.625v2.813h0.625v-1.563c0-0.5 0.229-0.75 0.688-0.75 0.417 0 0.625 0.25 0.625 0.75v1.563h0.604v-1.563c0-0.5 0.229-0.75 0.688-0.75 0.417 0 0.625 0.25 0.625 0.75v1.563zM15.938 29.188h0.604v-2.813h-0.604v0.333c-0.236-0.278-0.535-0.417-0.896-0.417-0.403 0-0.736 0.139-1 0.417s-0.396 0.632-0.396 1.063c0 0.431 0.132 0.785 0.396 1.063s0.597 0.417 1 0.417c0.389 0 0.688-0.139 0.896-0.417v0.354zM19.646 28.333c0-0.472-0.326-0.75-0.979-0.833l-0.292-0.042c-0.319-0.055-0.479-0.153-0.479-0.292 0-0.208 0.174-0.313 0.521-0.313 0.319 0 0.618 0.076 0.896 0.229l0.25-0.5c-0.306-0.194-0.688-0.292-1.146-0.292-0.361 0-0.646 0.083-0.854 0.25s-0.313 0.389-0.313 0.667c0 0.458 0.326 0.729 0.979 0.813l0.271 0.042c0.333 0.056 0.5 0.153 0.5 0.292 0 0.236-0.215 0.354-0.646 0.354-0.347 0-0.66-0.097-0.938-0.292l-0.271 0.479c0.347 0.236 0.75 0.354 1.208 0.354 0.403 0 0.719-0.083 0.948-0.25s0.344-0.389 0.344-0.667zM22.354 29.042l-0.167-0.521c-0.181 0.097-0.361 0.146-0.542 0.146-0.264 0-0.396-0.153-0.396-0.458v-1.271h1v-0.563h-1v-0.854h-0.625v0.854h-0.583v0.563h0.583v1.271c0 0.695 0.326 1.042 0.979 1.042 0.292 0 0.542-0.069 0.75-0.208zM24.146 26.292c-0.403 0-0.736 0.139-1 0.417s-0.396 0.632-0.396 1.063c0 0.445 0.135 0.802 0.406 1.073s0.615 0.406 1.031 0.406c0.458 0 0.84-0.132 1.146-0.396l-0.292-0.458c-0.25 0.208-0.521 0.313-0.813 0.313-0.472 0-0.757-0.229-0.854-0.688h2.104v-0.25c0-0.444-0.125-0.802-0.375-1.073s-0.57-0.406-0.958-0.406zM27.458 26.292c-0.319 0-0.563 0.139-0.729 0.417v-0.333h-0.625v2.813h0.625v-1.583c0-0.486 0.201-0.729 0.604-0.729 0.139 0 0.264 0.028 0.375 0.083l0.188-0.583c-0.125-0.056-0.271-0.083-0.438-0.083zM28.083 27.771c0 0.431 0.136 0.785 0.406 1.063s0.635 0.417 1.094 0.417c0.403 0 0.736-0.111 1-0.333l-0.292-0.5c-0.25 0.18-0.493 0.264-0.729 0.25-0.25 0-0.455-0.083-0.615-0.25s-0.24-0.382-0.24-0.646 0.080-0.479 0.24-0.646c0.16-0.167 0.365-0.25 0.615-0.25 0.264 0 0.507 0.083 0.729 0.25l0.292-0.5c-0.278-0.222-0.611-0.333-1-0.333-0.458 0-0.823 0.139-1.094 0.417s-0.406 0.632-0.406 1.063zM33.188 29.188h0.625v-2.813h-0.625v0.333c-0.208-0.278-0.5-0.417-0.875-0.417-0.403 0-0.74 0.139-1.010 0.417s-0.406 0.632-0.406 1.063c0 0.431 0.135 0.785 0.406 1.063s0.608 0.417 1.010 0.417c0.389 0 0.681-0.139 0.875-0.417v0.354zM35.958 26.292c-0.319 0-0.563 0.139-0.729 0.417v-0.333h-0.604v2.813h0.604v-1.583c0-0.486 0.201-0.729 0.604-0.729 0.139 0 0.264 0.028 0.375 0.083l0.188-0.583c-0.111-0.056-0.257-0.083-0.438-0.083zM38.875 29.188h0.604v-3.958h-0.604v1.479c-0.208-0.278-0.507-0.417-0.896-0.417s-0.719 0.142-0.99 0.427c-0.271 0.285-0.406 0.635-0.406 1.052s0.136 0.767 0.406 1.052 0.601 0.427 0.99 0.427c0.403 0 0.701-0.139 0.896-0.417v0.354zM40.5 28.771l-0.042 0.021h-0.063c-0.028 0.014-0.056 0.035-0.083 0.063-0.042 0.014-0.063 0.042-0.063 0.083-0.014 0.028-0.021 0.069-0.021 0.125 0 0.042 0.007 0.076 0.021 0.104 0 0.028 0.021 0.055 0.063 0.083 0.028 0.028 0.056 0.049 0.083 0.063s0.063 0.021 0.104 0.021c0.056 0 0.097-0.007 0.125-0.021 0-0.014 0.014-0.028 0.042-0.042l0.042-0.021c0.014-0.014 0.035-0.042 0.063-0.083 0.014-0.028 0.021-0.063 0.021-0.104 0-0.056-0.007-0.097-0.021-0.125-0.014-0.014-0.035-0.042-0.063-0.083 0-0.014-0.014-0.028-0.042-0.042l-0.042-0.021c-0.014 0-0.035-0.003-0.063-0.011s-0.049-0.010-0.063-0.010zM48 2.667v26.667c0 0.722-0.264 1.347-0.792 1.875s-1.153 0.792-1.875 0.792h-42.667c-0.722 0-1.347-0.264-1.875-0.792s-0.792-1.153-0.792-1.875v-26.667c0-0.722 0.264-1.347 0.792-1.875s1.153-0.792 1.875-0.792h42.667c0.722 0 1.347 0.264 1.875 0.792s0.792 1.153 0.792 1.875z"></path>
</symbol>
<symbol id="icon-mobileVibration" viewBox="0 0 31 32">
<path fill="#63718e" style="fill: var(--color2, #63718e)" d="M19.885 4.234c-0.968-0.968-2.652-0.968-3.62 0l-12.671 12.671c-0.48 0.48-0.749 1.131-0.749 1.81s0.269 1.33 0.749 1.81l7.241 7.241c0.484 0.484 1.126 0.75 1.81 0.75s1.326-0.266 1.81-0.75l12.671-12.671c0.484-0.484 0.75-1.126 0.75-1.81s-0.266-1.326-0.75-1.81l-7.241-7.241zM12.645 25.956v0l-7.241-7.241 12.671-12.671 7.241 7.241-12.671 12.671z"></path>
<path fill="#63718e" style="fill: var(--color2, #63718e)" d="M11.52 21.12c0.707 0 1.28-0.573 1.28-1.28s-0.573-1.28-1.28-1.28c-0.707 0-1.28 0.573-1.28 1.28s0.573 1.28 1.28 1.28z"></path>
<path fill="#63718e" style="fill: var(--color2, #63718e)" d="M20.105 28.425l-1.81-1.81 7.68-7.68 1.81 1.811-7.68 7.679z"></path>
<path fill="#63718e" style="fill: var(--color2, #63718e)" d="M10.615 3.575l1.81 1.81-7.68 7.68-1.81-1.811 7.68-7.679z"></path>
</symbol>
<symbol id="icon-quote" viewBox="0 0 32 32">
<path fill="#e8f8ff" style="fill: var(--color9, #e8f8ff)" d="M2.783 16.348v11.478h11.329v-11.478h-7.553c0-4.219 3.388-7.652 7.553-7.652v-3.826c-6.247 0-11.329 5.149-11.329 11.478z"></path>
<path fill="#e8f8ff" style="fill: var(--color9, #e8f8ff)" d="M29.217 8.696v-3.826c-6.247 0-11.329 5.149-11.329 11.478v11.478h11.329v-11.478h-7.553c0-4.219 3.388-7.652 7.553-7.652z"></path>
</symbol>
<symbol id="icon-searc" viewBox="0 0 31 32">
<path fill="#63718e" style="fill: var(--color2, #63718e)" d="M12.8 23.68c2.272-0 4.478-0.761 6.268-2.161l5.627 5.627 1.81-1.81-5.627-5.627c1.4-1.79 2.161-3.997 2.162-6.269 0-5.646-4.594-10.24-10.24-10.24s-10.24 4.594-10.24 10.24c0 5.646 4.594 10.24 10.24 10.24zM12.8 5.76c4.236 0 7.68 3.444 7.68 7.68s-3.444 7.68-7.68 7.68c-4.236 0-7.68-3.444-7.68-7.68s3.444-7.68 7.68-7.68z"></path>
<path fill="#63718e" style="fill: var(--color2, #63718e)" d="M14.607 11.63c0.485 0.486 0.753 1.129 0.753 1.81h2.56c0.001-0.673-0.131-1.339-0.389-1.96s-0.637-1.185-1.114-1.659c-1.938-1.935-5.298-1.935-7.235 0l1.807 1.812c0.973-0.97 2.65-0.968 3.617-0.003z"></path>
</symbol>
<symbol id="icon-star" viewBox="0 0 34 32">
<path fill="#fff" style="fill: var(--color7, #fff)" d="M17.067 0l3.832 11.793h12.4l-10.032 7.288 3.832 11.793-10.032-7.288-10.032 7.288 3.832-11.793-10.032-7.288h12.4l3.832-11.793z"></path>
</symbol>
<symbol id="icon-stars" viewBox="0 0 196 32">
<path fill="#c774ee" style="fill: var(--color3, #c774ee)" d="M16.727 0l3.949 12.223h12.778l-10.338 7.554 3.949 12.223-10.338-7.554-10.338 7.554 3.949-12.223-10.338-7.554h12.778l3.949-12.223z"></path>
<path fill="#c774ee" style="fill: var(--color3, #c774ee)" d="M57.455 0l3.949 12.223h12.778l-10.338 7.554 3.949 12.223-10.338-7.554-10.338 7.554 3.949-12.223-10.338-7.554h12.778l3.949-12.223z"></path>
<path fill="#c774ee" style="fill: var(--color3, #c774ee)" d="M98.182 0l3.949 12.223h12.778l-10.338 7.554 3.949 12.223-10.338-7.554-10.338 7.554 3.949-12.223-10.338-7.554h12.778l3.949-12.223z"></path>
<path fill="#c774ee" style="fill: var(--color3, #c774ee)" d="M138.909 0l3.949 12.223h12.778l-10.338 7.554 3.948 12.223-10.337-7.554-10.338 7.554 3.949-12.223-10.338-7.554h12.778l3.949-12.223z"></path>
<path fill="#c774ee" style="fill: var(--color3, #c774ee)" d="M179.636 0l3.949 12.223h12.778l-10.337 7.554 3.948 12.223-10.337-7.554-10.337 7.554 3.948-12.223-10.337-7.554h12.778l3.949-12.223z"></path>
</symbol>
<symbol id="icon-visa" viewBox="0 0 41 32">
<path fill="#7e8183" style="fill: var(--color4, #7e8183)" d="M33.462 14.236c0 0 0.541 2.657 0.662 3.214h-2.378c0.235-0.636 1.139-3.107 1.139-3.107-0.014 0.021 0.235-0.65 0.377-1.064l0.199 0.957zM41 3.429v25.143c0 1.893-1.53 3.429-3.417 3.429h-34.167c-1.886 0-3.417-1.536-3.417-3.429v-25.143c0-1.893 1.53-3.429 3.417-3.429h34.167c1.886 0 3.417 1.536 3.417 3.429zM10.855 21.371l4.499-11.086h-3.025l-2.797 7.571-0.306-1.536-0.997-5.1c-0.164-0.707-0.669-0.907-1.295-0.936h-4.605l-0.050 0.221c1.125 0.286 2.128 0.7 3.004 1.222l2.548 9.643h3.025zM17.575 21.386l1.794-11.1h-2.861l-1.787 11.1h2.854zM27.533 17.757c0.014-1.264-0.755-2.229-2.399-3.021-1.004-0.507-1.616-0.85-1.616-1.371 0.014-0.471 0.52-0.957 1.644-0.957 0.933-0.021 1.616 0.2 2.128 0.421l0.256 0.121 0.392-2.4c-0.562-0.221-1.459-0.471-2.563-0.471-2.826 0-4.812 1.514-4.826 3.671-0.021 1.593 1.424 2.479 2.506 3.014 1.103 0.543 1.48 0.9 1.48 1.379-0.014 0.743-0.897 1.086-1.715 1.086-1.139 0-1.751-0.179-2.683-0.593l-0.377-0.179-0.399 2.493c0.669 0.307 1.908 0.579 3.189 0.593 3.004 0.007 4.961-1.486 4.983-3.786zM37.583 21.386l-2.306-11.1h-2.214c-0.683 0-1.203 0.2-1.495 0.921l-4.25 10.179h3.004c0 0 0.491-1.371 0.598-1.664h3.673c0.085 0.393 0.342 1.664 0.342 1.664h2.648z"></path>
</symbol>
<symbol id="icon-close" viewBox="0 0 32 32">
<path d="M26.667 7.303l-1.97-1.97-7.808 7.808-7.808-7.808-1.97 1.97 7.808 7.808-7.808 7.808 1.97 1.97 7.808-7.808 7.808 7.808 1.97-1.97-7.808-7.808 7.808-7.808z"></path>
</symbol>
</defs>
</svg>
